<?xml version="1.0" standalone="no"?>
<!DOCTYPE svg PUBLIC "-//W3C//DTD SVG 20010904//EN"
 "http://www.w3.org/TR/2001/REC-SVG-20010904/DTD/svg10.dtd">
<svg version="1.0" xmlns="http://www.w3.org/2000/svg"
 width="1280.000000pt" height="1280.000000pt" viewBox="0 0 1280.000000 1280.000000"
 preserveAspectRatio="xMidYMid meet">
<g transform="translate(0.000000,1280.000000) scale(0.100000,-0.100000)"
fill="#000000" stroke="none">
<path d="M11245 8858 c-80 -13 -233 -62 -320 -102 -228 -107 -408 -280 -532
-513 -84 -159 -116 -276 -143 -538 -5 -44 -13 -111 -19 -150 -24 -167 -33
-655 -20 -1125 l4 -155 -165 -6 c-91 -3 -178 -9 -195 -13 -16 -3 -97 -11 -180
-17 -82 -6 -194 -15 -247 -20 -54 -5 -142 -13 -195 -18 -54 -5 -116 -12 -138
-15 -22 -3 -85 -10 -140 -16 -55 -6 -118 -15 -140 -20 -124 -28 -168 -40 -181
-51 -18 -15 -20 -214 -3 -225 12 -7 11 -27 -11 -434 -5 -80 -13 -390 -19 -690
-11 -600 -17 -790 -31 -985 -16 -210 -45 -458 -55 -475 -4 -6 14 -19 40 -31
37 -16 54 -19 83 -12 33 8 38 13 45 48 12 65 50 394 63 545 10 132 47 679 53
798 3 72 11 126 17 130 6 4 14 25 18 46 4 21 13 48 21 60 8 14 14 78 18 198 3
97 11 196 17 220 34 129 46 168 66 214 13 28 30 54 39 58 39 15 156 5 233 -19
134 -42 239 -120 334 -249 71 -95 125 -205 172 -347 42 -128 57 -226 65 -424
3 -82 10 -156 14 -163 5 -7 24 -19 43 -27 l35 -14 -1 -303 c-1 -491 -21 -1331
-32 -1352 -13 -23 1 -33 60 -42 35 -5 49 -3 70 13 26 19 27 25 33 135 3 63 10
121 15 129 5 8 12 77 16 154 17 339 27 508 37 620 6 66 16 200 21 298 18 336
18 337 56 359 18 10 35 26 38 35 4 8 20 84 37 167 17 83 35 169 39 191 26 122
56 205 75 205 8 0 15 -21 19 -57 14 -134 33 -369 56 -718 14 -198 27 -336 35
-362 5 -15 2 -32 -8 -47 -15 -22 -14 -24 9 -35 14 -6 47 -11 74 -11 77 0 83
14 70 186 -5 76 -15 243 -21 369 -10 214 -22 446 -35 692 l-6 102 28 13 c16 7
31 14 34 16 3 2 3 54 2 116 l-4 113 49 36 c123 90 311 156 445 157 112 0 207
-57 245 -148 30 -71 43 -194 43 -395 l0 -197 31 -7 c35 -7 43 -23 53 -108 14
-119 106 -545 156 -725 6 -19 30 -111 56 -204 25 -92 54 -191 64 -220 38 -106
62 -196 56 -211 -3 -8 -16 -19 -28 -24 -22 -9 -22 -9 7 -17 17 -5 65 -9 109
-9 105 0 109 6 72 122 -15 48 -36 120 -47 158 -54 196 -72 264 -81 305 -6 25
-14 63 -20 85 -10 44 -17 78 -43 205 -9 47 -23 114 -32 150 -15 63 -23 107
-42 235 -5 33 -12 67 -15 75 -17 46 -38 394 -39 645 -1 277 11 481 38 645 7
47 19 119 25 160 16 104 67 346 97 460 13 52 29 111 33 130 22 87 199 572 230
630 24 45 132 338 160 436 34 114 36 139 16 151 -21 12 -27 251 -6 283 17 26
40 -10 45 -69 2 -29 7 -56 10 -59 10 -10 -1 329 -12 374 -15 62 -65 162 -117
231 -42 58 -115 116 -193 157 -55 28 -203 77 -288 95 -27 6 -71 15 -97 21 -56
12 -259 11 -343 -2z m251 -138 c34 0 9 -27 -45 -48 -134 -52 -246 -147 -336
-285 -90 -139 -127 -241 -154 -432 -7 -44 -16 -102 -21 -130 -5 -27 -12 -75
-15 -105 -3 -30 -10 -93 -16 -140 -28 -227 -47 -406 -59 -542 -6 -60 -15 -159
-20 -220 -6 -62 -15 -162 -20 -223 -5 -60 -13 -139 -19 -175 -6 -36 -11 -95
-11 -132 0 -87 -13 -96 -103 -74 -34 8 -98 20 -143 27 l-81 12 -13 81 c-23
146 -32 334 -36 835 -5 459 -4 502 15 620 45 279 122 456 271 614 124 133 312
237 525 292 55 14 210 33 239 29 16 -2 35 -4 42 -4z m427 -114 c40 -17 138
-119 160 -166 64 -142 73 -298 27 -515 -30 -144 -33 -155 -64 -255 -15 -48
-56 -157 -86 -230 -11 -25 -42 -101 -71 -170 -28 -69 -81 -195 -117 -280 -57
-135 -128 -337 -163 -465 -6 -22 -15 -51 -19 -65 -4 -14 -13 -45 -20 -70 -6
-25 -18 -67 -26 -95 -7 -27 -23 -102 -35 -165 -11 -63 -22 -125 -25 -137 -6
-29 -33 -30 -63 -2 -19 18 -22 28 -17 58 3 20 11 68 16 106 5 39 14 88 19 110
5 22 14 72 21 110 17 106 40 207 82 355 44 157 120 365 200 545 38 88 97 220
129 293 32 74 59 136 59 138 0 2 14 33 30 70 116 253 110 574 -14 743 -20 27
-43 54 -51 61 -14 12 -21 40 -10 40 3 0 20 -6 38 -14z m-184 -52 c63 -32 120
-100 152 -181 19 -50 23 -78 23 -198 1 -93 -4 -155 -13 -185 -39 -127 -86
-246 -158 -400 -19 -41 -46 -102 -59 -135 -14 -33 -48 -112 -76 -175 -77 -174
-77 -174 -115 -288 -78 -238 -123 -402 -143 -522 -5 -30 -16 -95 -24 -145 -8
-49 -20 -122 -26 -162 -17 -106 -20 -109 -108 -79 -39 14 -116 37 -170 52 -53
15 -103 32 -109 37 -17 13 -16 105 2 266 9 73 14 135 11 139 -2 4 0 32 6 62
10 59 22 175 38 360 21 256 72 710 99 885 40 263 102 403 245 554 123 129 300
177 425 115z m-2826 -2822 c22 -20 22 -25 -9 -61 -28 -34 -58 -40 -68 -15 -9
24 -7 63 5 85 11 22 40 19 72 -9z m2534 -37 c7 -19 -18 -165 -28 -165 -14 0
-79 118 -74 132 6 15 60 46 83 47 7 1 15 -6 19 -14z m-1790 -190 c58 -16 93
-24 192 -44 30 -6 60 -16 68 -22 28 -24 8 -509 -22 -513 -5 0 -17 19 -25 44
-8 25 -18 50 -21 55 -4 6 -12 28 -19 50 -36 110 -144 290 -226 375 -69 72 -57
84 53 55z m545 -120 c5 -16 13 -55 17 -85 5 -30 17 -92 26 -137 l18 -82 -31
-73 c-17 -40 -39 -95 -48 -121 -9 -26 -22 -46 -28 -44 -15 5 -21 530 -5 558
15 28 41 20 51 -16z"/>
<path d="M1305 8850 c-44 -4 -91 -11 -105 -15 -223 -64 -269 -85 -342 -153
-84 -78 -131 -186 -148 -339 -11 -91 -10 -128 4 -238 9 -71 21 -146 27 -165 5
-19 17 -60 25 -90 43 -161 157 -468 254 -685 47 -103 85 -212 140 -390 73
-239 133 -529 171 -815 6 -47 18 -132 27 -190 25 -155 24 -836 -1 -1075 -10
-93 -22 -192 -27 -218 -6 -27 -10 -63 -10 -80 0 -17 -5 -58 -11 -91 -6 -34
-15 -83 -19 -111 -23 -126 -86 -435 -120 -585 -4 -19 -15 -71 -24 -115 -9 -44
-20 -96 -26 -115 -37 -136 -40 -163 -24 -188 15 -22 21 -24 76 -20 83 6 103
29 111 129 4 41 10 88 15 104 5 17 15 55 21 85 15 71 25 112 55 240 23 96 73
334 95 455 23 120 53 297 83 479 12 75 15 81 53 108 l40 29 5 267 5 267 42 61
c23 34 60 76 82 93 70 55 103 64 243 63 71 0 137 -3 148 -7 29 -9 32 -37 20
-155 -7 -58 -14 -147 -17 -198 -5 -92 -5 -94 22 -122 26 -28 28 -33 21 -92 -8
-82 -21 -185 -41 -328 -9 -63 -20 -151 -25 -195 -37 -345 -49 -435 -70 -565
-29 -175 -22 -196 68 -187 29 3 59 11 67 17 7 6 15 36 18 68 3 31 11 91 16
132 6 41 15 109 21 150 14 115 39 286 59 415 5 33 14 92 20 130 6 39 22 133
36 210 14 77 30 182 36 234 13 122 18 131 74 131 52 0 65 16 65 78 0 58 11
103 27 109 37 14 191 -143 254 -260 93 -172 123 -275 142 -497 l12 -145 42
-19 c50 -23 50 -19 58 -276 3 -96 10 -274 16 -395 6 -121 13 -397 17 -613 l7
-394 24 -19 c29 -24 66 -24 109 -1 l33 17 6 640 c3 352 7 738 7 857 1 211 2
217 23 238 13 11 23 24 23 28 1 7 23 211 40 357 9 81 26 153 59 254 92 281
251 458 474 531 59 19 81 8 107 -52 52 -121 61 -182 61 -412 l0 -175 37 -18
c37 -18 37 -18 34 -76 -1 -36 3 -69 12 -85 17 -34 36 -174 36 -273 0 -40 4
-130 10 -199 23 -278 42 -488 51 -550 5 -36 13 -96 19 -135 5 -38 14 -99 20
-135 5 -36 13 -90 16 -120 4 -30 11 -61 16 -67 6 -7 32 -13 59 -13 75 0 81 15
69 175 -6 72 -15 159 -21 195 -23 143 -31 273 -40 685 -10 508 -23 865 -39
1140 -7 110 -12 283 -12 385 1 220 -1 236 -36 254 -68 34 -356 65 -892 96 -96
6 -237 15 -312 21 -75 6 -225 9 -333 7 -218 -3 -220 -3 -210 62 27 181 31 958
6 1150 -7 47 -16 121 -22 165 -11 87 -20 136 -51 265 -93 383 -412 719 -806
849 -76 25 -114 31 -210 35 -64 2 -153 1 -197 -4z m350 -172 c222 -74 438
-239 573 -440 74 -110 100 -169 144 -323 19 -68 25 -107 49 -305 25 -216 7
-850 -31 -1123 -6 -37 -10 -89 -10 -115 0 -27 -6 -56 -13 -66 -16 -22 -213
-64 -228 -49 -6 6 -17 77 -25 159 -8 82 -19 179 -24 217 -6 37 -10 93 -10 125
0 31 -7 116 -16 187 -22 174 -30 250 -43 380 -6 61 -15 155 -21 210 -5 55 -12
125 -15 155 -31 326 -83 508 -201 705 -56 92 -176 213 -253 254 -67 35 -80 49
-60 62 20 12 80 1 184 -33z m-580 -38 c4 -6 -8 -28 -25 -49 -109 -139 -140
-405 -74 -656 13 -52 166 -404 218 -505 78 -149 228 -565 270 -750 9 -36 25
-108 37 -160 32 -139 51 -262 66 -417 5 -60 -1 -102 -13 -90 -7 7 -22 66 -34
137 -5 30 -19 98 -30 150 -64 291 -156 585 -245 785 -8 17 -41 95 -74 175 -33
80 -79 192 -104 250 -80 193 -156 437 -183 590 -27 152 -15 333 29 415 16 31
74 90 117 118 30 19 37 20 45 7z m372 -81 c114 -55 197 -147 282 -317 42 -84
60 -133 79 -212 6 -25 14 -56 17 -70 13 -55 43 -278 56 -420 28 -315 42 -447
58 -548 24 -156 69 -747 59 -774 -4 -8 -39 -25 -80 -38 -40 -13 -104 -36 -143
-51 -65 -27 -71 -28 -82 -12 -7 9 -13 24 -14 32 -5 144 -67 470 -119 636 -67
211 -118 352 -185 515 -97 233 -99 237 -147 340 -22 47 -56 126 -76 175 -19
50 -38 95 -42 100 -4 6 -13 35 -19 65 -7 30 -16 74 -22 98 -13 59 -11 228 3
271 43 135 75 189 130 217 78 41 150 38 245 -7z m2731 -2742 c2 -16 -2 -35 -9
-43 -10 -12 -16 -12 -43 5 -38 24 -39 41 -6 58 36 19 55 12 58 -20z m-2527
-67 c26 -14 24 -30 -8 -84 -40 -65 -57 -57 -61 27 -3 66 -3 67 23 67 15 0 35
-5 46 -10z m193 -56 c38 -15 3 -54 -48 -54 -30 0 -34 20 -10 44 16 17 33 20
58 10z m1706 -104 c0 -5 -16 -30 -35 -56 -65 -84 -175 -297 -175 -338 0 -22
-28 -52 -38 -41 -16 16 -36 355 -22 369 10 10 227 73 258 75 6 1 12 -3 12 -9z
m-675 -70 c83 -7 160 -14 173 -16 l22 -4 -2 -263 c-2 -144 -7 -262 -12 -262
-4 0 -27 43 -50 95 -23 52 -62 124 -86 160 -51 77 -177 210 -237 252 -24 16
-43 36 -43 45 0 12 8 14 43 10 23 -4 110 -11 192 -17z"/>
<path d="M6075 8019 c-256 -16 -583 -55 -790 -94 -44 -9 -107 -20 -140 -26
-267 -45 -493 -130 -620 -234 -54 -44 -105 -143 -105 -204 0 -59 18 -86 116
-172 87 -76 185 -131 344 -194 l105 -42 12 -169 c6 -93 12 -389 13 -659 0
-407 -2 -501 -15 -555 -28 -119 -39 -214 -35 -295 7 -146 4 -309 -8 -410 -7
-55 -16 -138 -22 -185 -8 -80 -13 -119 -40 -315 -6 -44 -15 -111 -20 -150 -27
-219 -52 -390 -57 -398 -3 -6 -10 -40 -14 -76 -9 -83 -38 -261 -44 -271 -2 -4
-11 -42 -20 -86 -19 -100 -51 -246 -76 -348 -10 -44 -19 -91 -19 -105 0 -14
-9 -55 -20 -89 -11 -35 -20 -74 -20 -87 0 -33 36 -55 92 -55 56 0 78 23 78 82
0 20 6 52 14 70 8 18 19 51 25 73 5 22 23 87 40 145 16 58 39 146 51 195 12
50 32 126 45 170 13 44 26 103 30 130 3 28 12 82 20 120 7 39 23 122 35 185
11 63 25 138 30 165 11 58 44 282 60 405 6 47 15 110 20 141 6 30 10 76 10
101 0 56 23 88 76 107 22 8 42 19 46 25 11 16 10 115 -2 177 -31 156 1 464 50
494 15 10 102 -49 149 -101 188 -203 322 -569 380 -1038 6 -45 16 -78 30 -95
12 -14 25 -35 30 -46 9 -21 0 -290 -19 -600 -6 -99 -15 -281 -21 -405 -28
-635 -36 -787 -58 -1065 -5 -66 -11 -173 -13 -238 -2 -108 -1 -120 17 -133 23
-17 96 -18 117 -1 19 15 35 106 43 242 6 112 21 270 36 388 10 76 22 193 40
382 4 50 12 135 18 190 33 336 50 583 60 878 10 270 14 290 69 303 15 4 39 13
53 20 29 15 31 22 49 259 10 131 12 147 42 250 26 91 72 187 119 252 58 79
165 186 180 181 8 -3 16 -18 17 -34 5 -42 19 -54 66 -54 69 0 73 -8 80 -155
10 -227 24 -492 41 -750 30 -475 34 -560 35 -662 0 -145 26 -302 53 -324 19
-15 23 -15 33 -1 6 9 19 13 31 10 47 -12 48 -7 48 299 0 158 -3 405 -7 548 -4
143 -11 431 -16 640 l-10 380 28 32 c26 29 29 41 35 140 4 59 11 115 15 123
13 24 105 53 145 46 20 -4 59 0 92 8 52 14 64 14 107 1 27 -8 57 -15 67 -15
50 0 131 -44 194 -104 112 -109 152 -228 141 -422 -3 -66 -9 -174 -12 -241
l-6 -123 46 0 c58 0 75 -23 87 -120 19 -151 40 -287 60 -395 14 -76 25 -139
34 -190 4 -22 10 -49 15 -60 5 -11 11 -33 13 -50 2 -16 16 -84 30 -150 15 -66
32 -142 37 -170 21 -95 31 -140 50 -205 11 -36 22 -78 26 -95 3 -16 17 -65 30
-108 24 -76 47 -162 84 -302 10 -38 30 -108 44 -154 14 -47 26 -93 26 -103 0
-11 11 -23 28 -29 35 -14 129 -2 136 16 5 15 -18 128 -54 260 -20 74 -77 322
-90 390 -15 78 -41 211 -60 300 -10 50 -23 115 -29 145 -18 94 -49 272 -61
345 -6 39 -18 104 -26 145 -28 143 -42 228 -64 380 -23 161 -30 209 -40 310
-6 58 -16 134 -20 170 -27 190 -53 493 -70 780 -4 80 -13 217 -19 305 -28 420
-40 929 -22 1009 6 28 13 32 111 61 225 68 381 145 466 230 82 82 98 170 47
253 -97 156 -440 308 -908 401 -169 34 -382 63 -625 87 -197 18 -820 27 -1025
13z m-815 -1055 c30 -8 75 -19 100 -23 25 -5 81 -16 125 -24 130 -25 203 -36
325 -48 63 -7 125 -18 138 -26 l22 -14 -2 -251 c-3 -211 -5 -252 -18 -259 -8
-4 -53 -12 -100 -19 -191 -26 -409 -81 -530 -136 -33 -14 -66 -24 -74 -21 -18
7 -23 49 -31 232 -6 175 -22 396 -36 496 -10 78 -6 109 15 109 6 0 36 -7 66
-16z m2565 -87 c-2 -497 -7 -744 -15 -757 -8 -13 -13 -13 -37 2 -168 103 -414
175 -701 204 -35 4 -70 13 -78 21 -19 20 -21 461 -1 485 9 11 53 20 162 33
227 26 502 63 580 79 39 8 75 13 80 12 6 -2 10 -36 10 -79z m-1036 -53 c12 -4
13 -40 8 -219 -3 -118 -11 -224 -16 -234 -10 -18 -28 -19 -278 -24 -148 -3
-280 -8 -294 -12 -18 -5 -31 -2 -42 10 -15 14 -17 42 -18 188 0 95 -4 195 -8
222 -15 86 -34 81 321 77 172 -2 319 -5 327 -8z m-17 -622 c13 -13 5 -485 -8
-489 -6 -2 -34 43 -62 100 -59 121 -122 196 -221 261 -58 39 -142 80 -204 100
-10 3 -17 12 -15 19 8 22 488 31 510 9z m400 -23 c29 -5 73 -14 98 -19 91 -17
100 -21 100 -34 0 -7 -21 -21 -47 -31 -125 -47 -219 -159 -283 -335 -9 -25
-23 -45 -31 -45 -11 0 -15 39 -20 220 -4 129 -3 227 2 238 11 20 95 23 181 6z
m-1623 -105 c-7 -8 -26 -22 -42 -31 -17 -8 -61 -44 -98 -79 -38 -35 -73 -64
-79 -64 -6 0 -22 11 -36 25 -23 23 -24 28 -12 47 28 42 183 115 247 117 29 1
32 -1 20 -15z m760 -45 c71 -24 119 -58 189 -133 63 -68 126 -183 116 -211 -7
-16 -24 -17 -203 -13 -124 3 -204 9 -219 17 -21 11 -22 16 -22 185 0 95 3 176
7 180 10 9 63 -1 132 -25z m-354 4 c11 -10 15 -25 11 -42 -3 -14 -9 -81 -12
-149 -4 -67 -11 -125 -16 -129 -14 -8 -185 25 -328 62 -161 43 -167 50 -92
114 89 77 168 110 352 149 65 14 67 14 85 -5z m1543 -58 c86 -20 162 -60 162
-84 0 -35 -41 -55 -233 -116 -52 -16 -223 -55 -244 -55 -56 0 61 181 156 242
51 32 71 34 159 13z m312 -214 c5 -11 10 -46 10 -78 0 -32 5 -104 12 -161 16
-137 9 -143 -77 -69 -37 32 -71 57 -76 57 -6 0 -38 13 -72 29 -34 16 -80 32
-102 36 -75 12 -85 15 -85 29 0 8 24 22 58 32 31 10 71 26 87 36 17 10 37 18
45 18 9 0 49 20 90 45 85 50 95 53 110 26z m-2083 -166 c62 -14 130 -25 152
-25 69 0 75 -14 67 -159 -3 -70 -9 -201 -12 -293 -4 -93 -10 -168 -14 -168
-14 0 -27 24 -48 86 -77 226 -183 424 -280 526 -39 41 -39 75 1 64 12 -4 73
-18 134 -31z m916 -82 c4 -2 7 -26 7 -53 0 -45 -3 -52 -36 -77 -111 -85 -159
-131 -212 -201 -84 -110 -154 -236 -186 -336 -51 -155 -55 -130 -49 287 4 239
9 377 16 385 9 11 53 12 231 7 122 -4 224 -9 229 -12z"/>
</g>
</svg>
